<svg version="1.2" xmlns="http://www.w3.org/2000/svg" viewBox="0 0 2560 1440" width="2560" height="1440">
	<title>Новый проект</title>
	<defs>
		<linearGradient id="g1" x1="931.5" y1="204" x2="2494.7" y2="204" gradientUnits="userSpaceOnUse">
			<stop offset="0" stop-color="#2c1e3b"/>
			<stop offset=".996" stop-color="#18121f"/>
		</linearGradient>
		<linearGradient id="g2" x1="832.7" y1="413.1" x2="2546.8" y2="413.1" gradientUnits="userSpaceOnUse">
			<stop offset="0" stop-color="#379278"/>
			<stop offset="1" stop-color="#1e514d"/>
		</linearGradient>
		<linearGradient id="g3" x1="859.5" y1="183" x2="1728.2" y2="183" gradientUnits="userSpaceOnUse">
			<stop offset="0" stop-color="#fdd259"/>
			<stop offset="1" stop-color="#fd8c28"/>
		</linearGradient>
		<linearGradient id="g4" x1="0" y1="313.9" x2="1135.7" y2="313.9" gradientUnits="userSpaceOnUse">
			<stop offset="0" stop-color="#379278"/>
			<stop offset="1" stop-color="#1e514d"/>
		</linearGradient>
		<linearGradient id="g5" x1="57.3" y1="106.6" x2="859.6" y2="106.6" gradientUnits="userSpaceOnUse">
			<stop offset="0" stop-color="#379278"/>
			<stop offset="1" stop-color="#1e514d"/>
		</linearGradient>
		<linearGradient id="g6" x1="207.2" y1="507.4" x2="964.6" y2="507.4" gradientUnits="userSpaceOnUse">
			<stop offset=".019" stop-color="#ef4860"/>
			<stop offset="1" stop-color="#dd1047"/>
		</linearGradient>
		<linearGradient id="g7" x1="400.9" y1="1097.5" x2="656.9" y2="1097.5" gradientUnits="userSpaceOnUse">
			<stop offset="0" stop-color="#7ceee2"/>
			<stop offset="1" stop-color="#64a2e2"/>
		</linearGradient>
		<linearGradient id="g8" x1="4.3" y1="704.5" x2="783" y2="704.5" gradientUnits="userSpaceOnUse">
			<stop offset="0" stop-color="#379278"/>
			<stop offset="1" stop-color="#1e514d"/>
		</linearGradient>
		<linearGradient id="g9" x1="42" y1="1192.9" x2="421" y2="1192.9" gradientUnits="userSpaceOnUse">
			<stop offset="0" stop-color="#2c1e3b"/>
			<stop offset=".996" stop-color="#18121f"/>
		</linearGradient>
		<linearGradient id="g10" x1="1541.3" y1="612.3" x2="2501" y2="612.3" gradientUnits="userSpaceOnUse">
			<stop offset=".019" stop-color="#ef4860"/>
			<stop offset="1" stop-color="#dd1047"/>
		</linearGradient>
		<linearGradient id="g11" x1="2096.5" y1="880.4" x2="2560" y2="880.4" gradientUnits="userSpaceOnUse">
			<stop offset="0" stop-color="#7ceee2"/>
			<stop offset="1" stop-color="#64a2e2"/>
		</linearGradient>
		<linearGradient id="g12" x1="1027" y1="975.8" x2="1829.1" y2="975.8" gradientUnits="userSpaceOnUse">
			<stop offset="0" stop-color="#379278"/>
			<stop offset="1" stop-color="#1e514d"/>
		</linearGradient>
		<linearGradient id="g13" x1="1810.9" y1="1332.2" x2="1976.3" y2="1332.2" gradientUnits="userSpaceOnUse">
			<stop offset="0" stop-color="#2c1e3b"/>
			<stop offset=".996" stop-color="#18121f"/>
		</linearGradient>
		<linearGradient id="g14" x1="1223.7" y1="1156.6" x2="1643" y2="1156.6" gradientUnits="userSpaceOnUse">
			<stop offset="0" stop-color="#fdd259"/>
			<stop offset="1" stop-color="#fd8c28"/>
		</linearGradient>
		<linearGradient id="g15" x1="1966.3" y1="181.2" x2="2504.4" y2="181.2" gradientUnits="userSpaceOnUse">
			<stop offset="0" stop-color="#fdd259"/>
			<stop offset="1" stop-color="#fd8c28"/>
		</linearGradient>
		<linearGradient id="g16" x1="1720.5" y1=".5" x2="1986.4" y2=".5" gradientUnits="userSpaceOnUse">
			<stop offset=".019" stop-color="#ef4860"/>
			<stop offset="1" stop-color="#dd1047"/>
		</linearGradient>
		<linearGradient id="g17" x1="51.6" y1="134.8" x2="455.7" y2="134.8" gradientUnits="userSpaceOnUse">
			<stop offset="0" stop-color="#7ceee2"/>
			<stop offset="1" stop-color="#64a2e2"/>
		</linearGradient>
		<linearGradient id="g18" x1="2077.1" y1="81.3" x2="2509.9" y2="81.3" gradientUnits="userSpaceOnUse">
			<stop offset="0" stop-color="#379278"/>
			<stop offset="1" stop-color="#1e514d"/>
		</linearGradient>
		<linearGradient id="g19" x1="811.3" y1="141.8" x2="1246.7" y2="141.8" gradientUnits="userSpaceOnUse">
			<stop offset="0" stop-color="#2c1e3b"/>
			<stop offset=".996" stop-color="#18121f"/>
		</linearGradient>
		<linearGradient id="g20" x1="982" y1="73.5" x2="1611" y2="73.5" gradientUnits="userSpaceOnUse">
			<stop offset="0" stop-color="#379278"/>
			<stop offset="1" stop-color="#1e514d"/>
		</linearGradient>
		<linearGradient id="g21" x1="663" y1="0" x2="799" y2="0" gradientUnits="userSpaceOnUse">
			<stop offset="0" stop-color="#379278"/>
			<stop offset="1" stop-color="#1e514d"/>
		</linearGradient>
		<linearGradient id="g22" x1="1226" y1="81.3" x2="1381.1" y2="81.3" gradientUnits="userSpaceOnUse">
			<stop offset="0" stop-color="#7ceee2"/>
			<stop offset="1" stop-color="#64a2e2"/>
		</linearGradient>
		<linearGradient id="g23" x1="2300.9" y1="112.1" x2="2479" y2="112.1" gradientUnits="userSpaceOnUse">
			<stop offset="0" stop-color="#2c1e3b"/>
			<stop offset=".996" stop-color="#18121f"/>
		</linearGradient>
		<linearGradient id="g24" x1="56.9" y1="81.3" x2="300.2" y2="81.3" gradientUnits="userSpaceOnUse">
			<stop offset="0" stop-color="#fdd259"/>
			<stop offset="1" stop-color="#fd8c28"/>
		</linearGradient>
		<linearGradient id="g25" x1="455.4" y1="9.8" x2="581.7" y2="9.8" gradientUnits="userSpaceOnUse">
			<stop offset="0" stop-color="#379278"/>
			<stop offset="1" stop-color="#1e514d"/>
		</linearGradient>
		<linearGradient id="g26" x1="1716" y1="786" x2="1900.2" y2="786" gradientUnits="userSpaceOnUse">
			<stop offset="0" stop-color="#2c1e3b"/>
			<stop offset=".996" stop-color="#18121f"/>
		</linearGradient>
	</defs>
	<style>
		.s0 { fill: url(#g1) } 
		.s1 { fill: url(#g2) } 
		.s2 { fill: url(#g3) } 
		.s3 { fill: url(#g4) } 
		.s4 { fill: url(#g5) } 
		.s5 { fill: url(#g6) } 
		.s6 { fill: url(#g7) } 
		.s7 { fill: url(#g8) } 
		.s8 { fill: url(#g9) } 
		.s9 { fill: url(#g10) } 
		.s10 { fill: url(#g11) } 
		.s11 { fill: url(#g12) } 
		.s12 { fill: url(#g13) } 
		.s13 { fill: url(#g14) } 
		.s14 { fill: url(#g15) } 
		.s15 { fill: url(#g16) } 
		.s16 { fill: url(#g17) } 
		.s17 { fill: url(#g18) } 
		.s18 { fill: url(#g19) } 
		.s19 { fill: url(#g20) } 
		.s20 { fill: url(#g21) } 
		.s21 { fill: url(#g22) } 
		.s22 { fill: url(#g23) } 
		.s23 { fill: url(#g24) } 
		.s24 { fill: url(#g25) } 
		.s25 { fill: url(#g26) } 
	</style>
	<g id="&lt;Group&gt;">
		<g id="&lt;Group&gt;">
			<g id="&lt;Group&gt;">
				<path id="&lt;Path&gt;" class="s0" d="m1182.4 982.2l-250.9-250.9 54.8-54.8 196.1 196.2 668.7-668.7 643.6 643.6-54.7 54.7-588.9-588.8z"/>
			</g>
		</g>
		<g id="&lt;Group&gt;">
			<g id="&lt;Group&gt;">
				<path id="&lt;Path&gt;" class="s1" d="m887.5 1489.6l-54.8-54.8 1021.7-1021.7 422 422-262.3 262.4 130.2 130.2 150-150 252.5 252.5-54.8 54.7-197.7-197.7-150 150-239.8-239.7 262.4-262.4-312.5-312.5z"/>
			</g>
		</g>
		<g id="&lt;Group&gt;">
			<g id="&lt;Group&gt;">
				<path id="&lt;Path&gt;" class="s2" d="m1187.8 778.1l-328.3-328.3 54.7-54.8 273.6 273.6 485.6-485.6 54.8 54.7z"/>
			</g>
		</g>
		<g id="&lt;Group&gt;">
			<g id="&lt;Group&gt;">
				<path id="&lt;Path&gt;" class="s3" d="m670.5 1509l-54.8-54.8 410.5-410.5-314.8-314.8 109.4-109.5-195.9-196-570.1 570.2-54.8-54.8 624.9-624.9 305.5 305.5-109.5 109.5 314.8 314.8z"/>
			</g>
		</g>
		<g id="&lt;Group&gt;">
			<g id="&lt;Group&gt;">
				<path id="&lt;Path&gt;" class="s4" d="m112 729l-54.7-54.8 567.6-567.6 234.7 234.7-54.8 54.8-179.9-180z"/>
			</g>
		</g>
		<g id="&lt;Group&gt;">
			<g id="&lt;Group&gt;">
				<path id="&lt;Path&gt;" class="s5" d="m545.5 1490.2l-338.3-338.3 246.9-246.9 273 263.3 127.3-127.3-379.5-369.8 163.8-163.8 94.6 94.7-54.7 54.8-39.9-40-53.6 53.6 379.5 369.8-236.5 236.6-273-263.4-138.4 138.4 283.6 283.6z"/>
			</g>
		</g>
		<g id="&lt;Group&gt;">
			<g id="&lt;Group&gt;">
				<g id="&lt;Group&gt;">
					<path id="&lt;Path&gt;" class="s6" d="m602.2 1353.6l-201.3-201.3 54.8-54.8 201.2 201.3z"/>
				</g>
			</g>
		</g>
		<g id="&lt;Group&gt;">
			<g id="&lt;Group&gt;">
				<path id="&lt;Path&gt;" class="s7" d="m59.1 1201.8l-54.8-54.7 442.6-442.6 336.1 336.2-54.8 54.7-281.3-281.3z"/>
			</g>
		</g>
		<g id="&lt;Group&gt;">
			<g id="&lt;Group&gt;">
				<path id="&lt;Path&gt;" class="s8" d="m366.3 1489.6l-187.2-187.2-82.4 82.4-54.7-54.8 137.1-137.1 241.9 241.9z"/>
			</g>
		</g>
		<g id="&lt;Group&gt;">
			<g id="&lt;Group&gt;">
				<path id="&lt;Path&gt;" class="s9" d="m2446.2 1547.5l-151.1-151.1-140 139.9-613.8-613.8 310.3-310.2 231.2 231.2-218.5 218.6-54.8-54.8 163.8-163.8-121.7-121.7-200.8 200.7 504.3 504.3 140-139.9 205.9 205.9z"/>
			</g>
		</g>
		<g id="&lt;Group&gt;">
			<g id="&lt;Group&gt;">
				<g id="&lt;Group&gt;">
					<path id="&lt;Path&gt;" class="s10" d="m2505.2 1178.7l-188.8-188.8-165.2 165.2-54.7-54.7 219.9-220 243.6 243.6z"/>
				</g>
			</g>
		</g>
		<g id="&lt;Group&gt;">
			<g id="&lt;Group&gt;">
				<path id="&lt;Path&gt;" class="s11" d="m1625.6 1512.3l-54.7-54.7 148.7-148.7-223.6-223.6-414.2 414.3-54.8-54.8 469-469 333.1 333.1z"/>
			</g>
		</g>
		<g id="&lt;Group&gt;">
			<g id="&lt;Group&gt;">
				<path id="&lt;Path&gt;" class="s12" d="m1921.6 1497.6l-110.7-110.7 54.8-54.7 110.6 110.7z"/>
			</g>
		</g>
		<g id="&lt;Group&gt;">
			<g id="&lt;Group&gt;">
				<path id="&lt;Path&gt;" class="s13" d="m1446.7 1497.7l-54.8-54.8 141.5-141.5-35.2-35.2-219.7 219.6-54.8-54.7 274.5-274.5 144.8 144.8z"/>
			</g>
		</g>
		<g id="&lt;Group&gt;">
			<g id="&lt;Group&gt;">
				<path id="&lt;Path&gt;" class="s14" d="m2449.7 719.3l-483.4-483.4 54.8-54.7 483.3 483.3z"/>
			</g>
		</g>
		<g id="&lt;Group&gt;">
			<g id="&lt;Group&gt;">
				<path id="&lt;Path&gt;" class="s15" d="m1931.7 189.5l-79.6-79.5-76.9 76.8-54.7-54.7 131.6-131.6 134.3 134.3z"/>
			</g>
		</g>
		<g id="&lt;Group&gt;">
			<g id="&lt;Group&gt;">
				<g id="&lt;Group&gt;">
					<path id="&lt;Path&gt;" class="s16" d="m106.3 538.9l-54.7-54.8 349.3-349.3 54.8 54.7z"/>
				</g>
			</g>
		</g>
		<g id="&lt;Group&gt;">
			<g id="&lt;Group&gt;">
				<path id="&lt;Path&gt;" class="s17" d="m2455.1 514.1l-378-378 54.8-54.8 378 378z"/>
			</g>
		</g>
		<g id="&lt;Group&gt;">
			<g id="&lt;Group&gt;">
				<path id="&lt;Path&gt;" class="s18" d="m1192 577.2l-380.7-380.7 54.7-54.7 380.7 380.6z"/>
			</g>
		</g>
		<g id="&lt;Group&gt;">
			<g id="&lt;Group&gt;">
				<path id="&lt;Path&gt;" class="s19" d="m1282.9 456.3l-300.9-300.9 54.8-54.7 246.1 246.1 273.3-273.3 54.8 54.7z"/>
			</g>
		</g>
		<g id="&lt;Group&gt;">
			<g id="&lt;Group&gt;">
				<path id="&lt;Path&gt;" class="s20" d="m744.3 136.1l-81.3-81.3 54.7-54.8 81.3 81.3z"/>
			</g>
		</g>
		<g id="&lt;Group&gt;">
			<g id="&lt;Group&gt;">
				<g id="&lt;Group&gt;">
					<path id="&lt;Path&gt;" class="s21" d="m1280.8 236.4l-54.8-54.8 100.3-100.3 54.8 54.8z"/>
				</g>
			</g>
		</g>
		<g id="&lt;Group&gt;">
			<g id="&lt;Group&gt;">
				<path id="&lt;Path&gt;" class="s22" d="m2424.2 290.2l-123.3-123.3 54.7-54.8 123.4 123.4z"/>
			</g>
		</g>
		<g id="&lt;Group&gt;">
			<g id="&lt;Group&gt;">
				<path id="&lt;Path&gt;" class="s23" d="m111.6 324.6l-54.7-54.7 188.5-188.6 54.8 54.8z"/>
			</g>
		</g>
		<g id="&lt;Group&gt;">
			<g id="&lt;Group&gt;">
				<path id="&lt;Path&gt;" class="s24" d="m510.1 136.1l-54.7-54.8 71.5-71.5 54.8 54.7z"/>
			</g>
		</g>
		<g id="&lt;Group&gt;">
			<g id="&lt;Group&gt;">
				<path id="&lt;Path&gt;" class="s25" d="m1770.7 970.3l-54.7-54.8 129.4-129.5 54.8 54.8z"/>
			</g>
		</g>
	</g>
</svg>